<?xml version="1.0" standalone="no"?>
<!DOCTYPE svg PUBLIC "-//W3C//DTD SVG 1.1//EN" "http://www.w3.org/Graphics/SVG/1.1/DTD/svg11.dtd" >
<svg xmlns="http://www.w3.org/2000/svg">
<metadata></metadata>
<defs>
<font id="acordesemibold" horiz-adv-x="1171" >
<font-face units-per-em="2048" ascent="1597" descent="-451" />
<missing-glyph horiz-adv-x="450" />
<glyph unicode="&#xfb01;" horiz-adv-x="1273" d="M45 864v185h164v135q0 156 100 247t273 91q102 0 172 -15l-29 -190q-65 14 -115 14q-82 0 -116.5 -40t-34.5 -124v-118h674v-1049h-248v864h-426v-864h-250v864h-164zM866 1364q0 62 41.5 100.5t102.5 38.5t102 -38.5t41 -100.5q0 -61 -41 -101t-102 -40t-102.5 40 t-41.5 101z" />
<glyph unicode="&#xfb02;" horiz-adv-x="1277" d="M45 864v185h164v135q0 156 117.5 247t320.5 91q124 0 291 -29l195 10v-1065q0 -117 2.5 -226t4.5 -160l3 -50q-72 -14 -111 -14q-147 0 -147 155v1160q-123 28 -209 28q-114 0 -165.5 -40.5t-51.5 -123.5v-118h276v-185h-276v-864h-250v864h-164z" />
<glyph unicode="&#xfb03;" horiz-adv-x="1949" d="M45 864v185h164v135q0 156 100 247t273 91q110 0 221 -27l-27 -190q-83 26 -166 26q-82 0 -116.5 -40t-34.5 -124v-118h426v135q0 156 99.5 247t272.5 91q103 0 173 -15l-29 -190q-65 14 -115 14q-82 0 -116.5 -40t-34.5 -124v-118h673v-1049h-247v864h-426v-864h-250 v864h-426v-864h-250v864h-164zM1542 1364q0 62 41.5 100.5t102.5 38.5t102 -38.5t41 -100.5q0 -61 -41 -101t-102 -40t-102.5 40t-41.5 101z" />
<glyph unicode="&#xfb04;" horiz-adv-x="1951" d="M45 864v185h164v135q0 156 100 247t273 91q110 0 221 -27l-27 -190q-83 26 -166 26q-82 0 -116.5 -40t-34.5 -124v-118h426v135q0 156 117.5 247t320.5 91q124 0 291 -29l194 10v-1065q0 -117 3 -226t5 -160l3 -50q-72 -14 -111 -14q-147 0 -147 155v1160 q-123 28 -209 28q-114 0 -165.5 -40.5t-51.5 -123.5v-118h276v-185h-276v-864h-250v864h-426v-864h-250v864h-164z" />
<glyph horiz-adv-x="2048" />
<glyph horiz-adv-x="2048" />
<glyph unicode="&#xd;" horiz-adv-x="2048" />
<glyph unicode=" "  horiz-adv-x="450" />
<glyph unicode="&#x09;" horiz-adv-x="450" />
<glyph unicode="&#xa0;" horiz-adv-x="450" />
<glyph unicode="!" horiz-adv-x="587" d="M139 127q0 68 45 111t109 43q66 0 111 -43t45 -111q0 -65 -45.5 -110.5t-110.5 -45.5q-63 0 -108.5 46t-45.5 110zM156 1475h276l-22 -1067h-232z" />
<glyph unicode="&#x22;" horiz-adv-x="817" d="M96 1516h242l-27 -500h-190zM479 1516h242l-27 -500h-190z" />
<glyph unicode="#" horiz-adv-x="1417" d="M66 395v180h258l36 304h-217v180h238l47 375h225l-47 -375h283l47 375h225l-47 -375h238v-180h-258l-37 -304h217v-180h-240l-47 -395h-225l47 395h-283l-47 -395h-225l47 395h-235zM549 575h282l37 304h-282z" />
<glyph unicode="$" horiz-adv-x="1058" d="M66 57l40 217q180 -102 359 -102v459q-37 17 -59.5 27t-58 28t-57.5 32.5t-51.5 37t-48 43.5t-39 49.5t-31.5 59t-18.5 68t-7.5 79.5q0 150 99.5 257.5t265.5 141.5v164h170v-152q176 -6 317 -61l-35 -221q-141 70 -288 76v-422q47 -21 76 -34.5t72.5 -37.5t70.5 -45.5 t58.5 -55t49 -68.5t29.5 -82t12 -101q0 -158 -96.5 -273.5t-265.5 -154.5v-170h-170v151q-222 3 -393 90zM354 1077q0 -95 111 -164v328q-111 -42 -111 -164zM623 201q110 50 110 182q0 100 -110 168v-350z" />
<glyph unicode="%" horiz-adv-x="1855" d="M66 1073q0 169 98.5 272t265.5 103q185 0 275 -100t90 -275q0 -162 -99.5 -268.5t-265.5 -106.5q-174 0 -269 105t-95 270zM258 1073q0 -97 49 -154t123 -57q80 0 126 56t46 155q0 104 -45.5 158.5t-126.5 54.5t-126.5 -54.5t-45.5 -158.5zM381 -61l946 1642l148 -86 l-949 -1642zM1061 360q0 169 97.5 272t264.5 103q184 0 274.5 -100t90.5 -275q0 -162 -100 -268t-265 -106q-174 0 -268 104.5t-94 269.5zM1251 360q0 -97 49 -155t123 -58q80 0 126 57t46 156q0 104 -45.5 157.5t-126.5 53.5t-126.5 -53.5t-45.5 -157.5z" />
<glyph unicode="&#x26;" horiz-adv-x="1566" d="M74 410q0 78 19.5 144t57 117.5t80 89.5t99.5 75q-101 157 -101 290q0 89 32.5 157t87 106.5t118 57.5t133.5 19q149 0 233.5 -67t84.5 -199q0 -114 -72 -210.5t-213 -186.5q161 -173 401 -336q77 148 96 311l234 -43q-26 -203 -139 -389q203 -117 340 -164l-103 -211 q-171 65 -383 197q-207 -193 -497 -193q-242 0 -375 123t-133 312zM319 440q0 -119 84.5 -193.5t217.5 -74.5q155 0 280 115q-281 196 -457 397q-61 -48 -93 -105t-32 -139zM453 1145q0 -90 67 -199q98 63 135 119t37 117q0 58 -32.5 88t-81.5 30q-125 0 -125 -155z" />
<glyph unicode="'" horiz-adv-x="432" d="M96 1516h242l-27 -500h-190z" />
<glyph unicode="(" horiz-adv-x="657" d="M106 532q0 168 23 321.5t66 281t84 220t96 189.5h221q-248 -465 -248 -985q0 -268 72 -521t176 -448h-227q-263 469 -263 942z" />
<glyph unicode=")" horiz-adv-x="655" d="M59 -410q106 196 177 447t71 538q0 269 -72 523t-176 446h228q264 -464 264 -942q0 -168 -23 -322t-65.5 -280.5t-84.5 -220t-97 -189.5h-222z" />
<glyph unicode="*" horiz-adv-x="1013" d="M66 1118l63 197l289 -119l-23 320h215l-22 -322l295 119l65 -193l-313 -78l209 -247l-170 -123l-172 270l-168 -270l-166 123l205 245z" />
<glyph unicode="+" horiz-adv-x="1097" d="M66 422v207h368v383h228v-383h368v-207h-368v-383h-228v383h-368z" />
<glyph unicode="," horiz-adv-x="518" d="M57 -213q66 11 105 64t39 135q-34 10 -65.5 46t-31.5 95q0 68 45 111t109 43q70 0 113 -46.5t43 -144.5q0 -176 -89 -293t-235 -145z" />
<glyph unicode="-" horiz-adv-x="806" d="M123 457v209h561v-209h-561z" />
<glyph unicode="." horiz-adv-x="516" d="M104 127q0 68 45 111t109 43q66 0 111 -43t45 -111q0 -65 -46 -110.5t-110 -45.5q-63 0 -108.5 46t-45.5 110z" />
<glyph unicode="/" horiz-adv-x="874" d="M68 -414l503 1876h238l-502 -1876h-239z" />
<glyph unicode="0" horiz-adv-x="1189" d="M84 524q0 246 137.5 397.5t372.5 151.5q132 0 231.5 -40t160 -113.5t90.5 -172.5t30 -223q0 -152 -61 -276t-179 -198.5t-272 -74.5q-124 0 -222.5 43t-160.5 118t-94.5 174t-32.5 214zM324 524q0 -156 77 -248t193 -92q125 0 197.5 90.5t72.5 249.5q0 168 -71.5 255 t-198.5 87t-198.5 -87t-71.5 -255z" />
<glyph unicode="1" horiz-adv-x="759" d="M25 825l346 224h215v-1049h-250v592q0 103 12 217q-50 -43 -98 -66l-166 -86z" />
<glyph unicode="2" horiz-adv-x="1021" d="M88 979q168 94 391 94q199 0 304.5 -80t105.5 -241q0 -56 -12.5 -106.5t-38.5 -94.5t-51.5 -77.5t-66 -70t-65.5 -56t-67 -50.5q-90 -67 -164 -111q209 11 268 11h258v-197h-856v178q72 41 174 112t183 140q37 33 63 58t57 62.5t47.5 76.5t16.5 78q0 85 -54.5 129.5 t-158.5 44.5q-163 0 -285 -86z" />
<glyph unicode="3" horiz-adv-x="1007" d="M45 -322l27 205q142 -65 323 -65q139 0 215 63t76 172q0 106 -91 163.5t-251 57.5q-57 0 -143 -8l-15 183q226 0 338.5 64t112.5 196q0 170 -225 170q-167 0 -285 -86l-51 186q168 94 393 94q422 0 422 -317q0 -126 -65.5 -214t-180.5 -136q154 -32 223.5 -113.5 t69.5 -222.5q0 -197 -152.5 -323t-382.5 -126q-210 0 -358 57z" />
<glyph unicode="4" horiz-adv-x="1105" d="M59 18v172l336 859h240l-256 -672q-40 -103 -74 -170q71 6 152 6h219v459h235v-459h158v-195h-158v-372h-239v372h-613z" />
<glyph unicode="5" horiz-adv-x="1044" d="M63 -322l27 205q145 -65 324 -65q148 0 226.5 69t78.5 185t-66.5 179.5t-187.5 63.5q-129 0 -229 -73l-140 61l51 746h779v-201h-248q-161 0 -305 12q0 -24 -2 -49l-23 -285q-2 -25 -10 -71q103 63 233 63q176 0 288 -106t112 -308q0 -219 -153.5 -351t-393.5 -132 q-213 0 -361 57z" />
<glyph unicode="6" horiz-adv-x="1132" d="M90 610q0 165 34.5 300.5t96.5 230.5t149.5 160t191.5 95.5t224 30.5q104 0 191 -20l14 -203q-98 27 -188 27q-96 0 -169.5 -22.5t-136.5 -77.5t-102 -158t-51 -254q110 164 332 164q174 0 277.5 -106t103.5 -322q0 -217 -132 -348.5t-345 -131.5q-117 0 -204.5 33 t-153 106t-99 197t-33.5 299zM342 518q11 -181 78.5 -263.5t171.5 -82.5q105 0 164 67.5t59 186.5q0 129 -58.5 189.5t-156.5 60.5q-161 0 -258 -158z" />
<glyph unicode="7" horiz-adv-x="1013" d="M45 846v203h940v-160l-215 -389q-104 -186 -205 -428t-143 -426h-254q34 174 113 368.5t211 458.5q111 224 235 383q-95 -10 -223 -10h-459z" />
<glyph unicode="8" horiz-adv-x="1132" d="M86 348q0 71 22 132t61 105t84 75.5t99 52.5q-104 62 -162.5 143.5t-58.5 200.5q0 165 130 267.5t319 102.5q210 0 322 -89t112 -253q0 -213 -250 -327q66 -33 113 -65t87 -76t60 -101t20 -129q0 -81 -32 -154.5t-91 -131.5t-152.5 -92t-207.5 -34q-228 0 -351.5 97.5 t-123.5 275.5zM332 377q0 -101 68.5 -156t168.5 -55q111 0 170.5 53.5t59.5 145.5t-66.5 149.5t-216.5 120.5q-87 -32 -135.5 -97.5t-48.5 -160.5zM375 1067q0 -83 52 -131.5t171 -101.5q174 62 174 227q0 75 -55 126.5t-148 51.5q-89 0 -141.5 -45.5t-52.5 -126.5z" />
<glyph unicode="9" horiz-adv-x="1093" d="M51 596q0 217 132.5 347t346.5 130q117 0 204 -32.5t152 -105.5t98.5 -197t33.5 -300q0 -206 -52.5 -364.5t-147 -256t-219.5 -147t-277 -49.5q-82 0 -189 21l-14 204q89 -28 186 -28q76 0 137.5 13.5t118.5 48.5t97.5 91.5t68.5 147t37 211.5q-106 -164 -332 -164 q-172 0 -276.5 107t-104.5 323zM295 625q0 -130 58 -191t157 -61q163 0 258 157q-11 181 -79 265t-171 84q-105 0 -164 -68t-59 -186z" />
<glyph unicode=":" horiz-adv-x="591" d="M141 127q0 68 45 111t109 43q66 0 111 -43t45 -111q0 -65 -45.5 -110.5t-110.5 -45.5q-63 0 -108.5 46t-45.5 110zM141 813q0 68 45 111t109 43q66 0 111 -43t45 -111q0 -65 -45.5 -110.5t-110.5 -45.5q-63 0 -108.5 46t-45.5 110z" />
<glyph unicode=";" horiz-adv-x="593" d="M94 -213q66 11 105 64t39 135q-34 10 -65.5 46t-31.5 95q0 68 45 111t109 43q70 0 113 -46.5t43 -144.5q0 -176 -89 -293t-235 -145zM141 813q0 68 45 111t109 43q66 0 111 -43t45 -111q0 -65 -45.5 -110.5t-110.5 -45.5q-63 0 -108.5 46t-45.5 110z" />
<glyph unicode="&#x3c;" horiz-adv-x="1095" d="M43 463v147l944 477v-241l-661 -307l661 -301v-252z" />
<glyph unicode="=" horiz-adv-x="1200" d="M119 240v200h962v-200h-962zM119 610v201h962v-201h-962z" />
<glyph unicode="&#x3e;" horiz-adv-x="1093" d="M109 -14v243l659 308l-659 301v249l942 -477v-147z" />
<glyph unicode="?" horiz-adv-x="952" d="M59 1391q66 47 175 81.5t219 34.5q197 0 312.5 -87.5t115.5 -254.5q0 -64 -17 -118t-55 -104t-78 -88.5t-106 -92.5q-117 -94 -117 -246q0 -64 8 -100l-246 -17q-10 45 -10 133q0 98 43.5 188.5t132.5 153.5q109 78 147 129t38 130q0 80 -62.5 123.5t-159.5 43.5 q-82 0 -158 -30.5t-130 -71.5zM244 127q0 68 44.5 111t108.5 43q66 0 111 -43t45 -111q0 -65 -45.5 -110.5t-110.5 -45.5q-63 0 -108 46t-45 110z" />
<glyph unicode="@" horiz-adv-x="1853" d="M59 326q0 169 46.5 316t132.5 257.5t203 190t261.5 120.5t305.5 41q126 0 238 -24.5t209.5 -78.5t167.5 -133t110.5 -193.5t40.5 -254.5q0 -256 -152 -424t-373 -168q-102 0 -159.5 39.5t-57.5 118.5q0 37 17 90l28 88q-140 -336 -346 -336q-221 0 -221 265 q0 126 36.5 238.5t101.5 196t161.5 132.5t210.5 49q160 0 297 -59l-94 -525q-6 -54 -6 -65q0 -40 20.5 -59t67.5 -19q90 0 168.5 115t78.5 297q0 128 -46.5 227.5t-129 161.5t-189.5 93.5t-233 31.5q-141 0 -263 -50t-210 -140t-138 -223t-50 -292q0 -158 47.5 -277.5 t133 -191.5t196 -107.5t245.5 -35.5q201 0 392 67l34 -167q-204 -82 -467 -82q-133 0 -251.5 27t-222.5 87t-179 148t-118.5 218t-43.5 290zM723 276q0 -126 78 -126q80 0 161 129t121 366l7 31q-56 16 -111 16q-59 0 -109 -39t-81 -100.5t-48.5 -133.5t-17.5 -143z" />
<glyph unicode="A" horiz-adv-x="1267" d="M-2 0l520 1434h248l489 -1434h-268l-104 334h-514l-109 -334h-262zM432 532h389l-116 381q-37 113 -70 277q-48 -185 -78 -277z" />
<glyph unicode="B" horiz-adv-x="1212" d="M170 4v1426q188 16 381 16q125 0 216 -17.5t160.5 -58t104.5 -111.5t35 -172q0 -96 -50.5 -179t-144.5 -136q250 -72 250 -338q0 -205 -148.5 -325.5t-422.5 -120.5q-193 0 -381 16zM420 190q70 -8 137 -8q311 0 311 234q0 68 -24 115.5t-68.5 73t-97.5 36t-121 10.5 q-85 0 -137 -6v-455zM420 825q35 -4 137 -4q258 0 258 228q0 48 -14 84.5t-37.5 58.5t-58 35.5t-69.5 18.5t-79 5q-67 0 -137 -8v-418z" />
<glyph unicode="C" horiz-adv-x="1179" d="M86 713q0 339 194 546t511 207q188 0 337 -55l-47 -221q-117 57 -270 57q-227 0 -344 -136.5t-117 -393.5q0 -261 127 -398t336 -137q146 0 268 56l47 -203q-142 -68 -348 -68q-344 0 -519 187t-175 559z" />
<glyph unicode="D" horiz-adv-x="1382" d="M170 4v1426q188 16 381 16q139 0 251.5 -22.5t205.5 -73t155.5 -128.5t96.5 -192.5t34 -261.5q0 -189 -58 -339.5t-160 -245.5t-235.5 -145t-289.5 -50q-193 0 -381 16zM424 203q74 -8 139 -8q224 0 345.5 145t121.5 416q0 126 -36 221t-100.5 151t-147.5 83.5t-183 27.5 q-65 0 -139 -8v-1028z" />
<glyph unicode="E" horiz-adv-x="1126" d="M170 0v1434h850v-207h-594v-391h526v-195h-526v-434h602v-207h-858z" />
<glyph unicode="F" horiz-adv-x="1087" d="M170 0v1434h850v-207h-594v-416h541v-199h-541v-612h-256z" />
<glyph unicode="G" horiz-adv-x="1363" d="M86 713q0 225 88.5 395.5t255.5 264t391 93.5q208 0 389 -61l-45 -223q-57 27 -145.5 46t-179.5 19q-247 0 -368.5 -135.5t-121.5 -394.5q0 -264 126 -402.5t343 -138.5q109 0 195 21v403h-246v186h487v-714q-86 -47 -210.5 -76t-245.5 -29q-713 0 -713 746z" />
<glyph unicode="H" horiz-adv-x="1435" d="M170 0v1434h256v-574h584v574h254v-1434h-254v653h-584v-653h-256z" />
<glyph unicode="I" horiz-adv-x="593" d="M170 0v1434h254v-1434h-254z" />
<glyph unicode="J" horiz-adv-x="593" d="M-43 -186q126 0 176 84q23 39 30 100t7 190v1246h254v-1262q0 -155 -17.5 -234.5t-64.5 -146.5q-106 -156 -362 -156z" />
<glyph unicode="K" horiz-adv-x="1228" d="M170 0v1434h256v-656l492 656h288l-528 -682l563 -752h-309l-506 700v-700h-256z" />
<glyph unicode="L" horiz-adv-x="1038" d="M170 0v1434h256v-1227h594v-207h-850z" />
<glyph unicode="M" horiz-adv-x="1826" d="M119 0l139 1434h281l305 -895q34 -95 65 -240q45 165 72 240l319 895h281l125 -1434h-254l-43 641q-15 227 -18 440q-51 -189 -80 -268l-295 -813h-230l-284 813q-35 100 -76 262q-10 -226 -27 -434l-51 -641h-229z" />
<glyph unicode="N" horiz-adv-x="1443" d="M170 0v1434h262l473 -775q71 -118 154 -307q-12 190 -12 477v605h227v-1434h-262l-475 774q-76 125 -152 301q12 -254 12 -471v-604h-227z" />
<glyph unicode="O" horiz-adv-x="1476" d="M86 717q0 340 176.5 544.5t474.5 204.5q170 0 296.5 -53t204 -153t115.5 -235.5t38 -307.5q0 -213 -79 -383t-229 -268.5t-346 -98.5q-158 0 -282.5 57t-204.5 158.5t-122 237.5t-42 297zM350 717q0 -129 31.5 -233t86 -169t123.5 -99t146 -34q174 0 281.5 138.5 t107.5 396.5q0 269 -106 401.5t-283 132.5q-176 0 -281.5 -132.5t-105.5 -401.5z" />
<glyph unicode="P" horiz-adv-x="1167" d="M170 0v1430q188 16 381 16q296 0 431.5 -100.5t135.5 -339.5q0 -226 -151.5 -366t-407.5 -140q-79 0 -135 6v-506h-254zM424 705q65 -7 139 -7q297 0 297 291q0 260 -297 260q-83 0 -139 -6v-538z" />
<glyph unicode="Q" horiz-adv-x="1476" d="M86 717q0 340 176.5 544.5t474.5 204.5q170 0 296.5 -53t204 -153t115.5 -235.5t38 -307.5q0 -258 -115.5 -449.5t-317.5 -263.5q149 -70 340 -70q62 0 123 11l-20 -213q-30 -6 -82 -6q-191 0 -347.5 63t-236.5 178q-157 1 -281.5 58t-204 158t-121.5 237t-42 297z M350 717q0 -129 31.5 -233t86 -169t123.5 -99t146 -34q174 0 281.5 138.5t107.5 396.5q0 269 -106 401.5t-283 132.5q-176 0 -281.5 -132.5t-105.5 -401.5z" />
<glyph unicode="R" horiz-adv-x="1224" d="M170 0v1430q188 16 381 16q268 0 402 -87.5t134 -297.5q0 -122 -62 -211t-165 -139q64 -32 107 -97t77 -180l127 -434h-266l-110 395q-32 115 -84 155t-150 40q-84 0 -139 -6v-584h-252zM422 780q37 -4 139 -4q117 0 191.5 62t74.5 184q0 227 -266 227q-84 0 -139 -6 v-463z" />
<glyph unicode="S" horiz-adv-x="1075" d="M74 57l41 217q183 -102 362 -102q126 0 195 55t69 156q0 46 -22 83.5t-59 65t-85 51.5t-101 47.5t-105.5 49.5t-100.5 60.5t-85 76.5t-59 103t-22 135q0 180 139 295.5t357 115.5q199 0 356 -61l-34 -221q-156 78 -322 78q-113 0 -174.5 -47.5t-61.5 -137.5 q0 -44 22 -80.5t58.5 -62.5t84.5 -49t100.5 -46t105.5 -48t101 -60t84.5 -77t58.5 -103.5t22 -136.5q0 -195 -143 -321t-381 -126q-221 0 -401 90z" />
<glyph unicode="T" horiz-adv-x="1124" d="M23 1227v207h1079v-207h-412v-1227h-254v1227h-413z" />
<glyph unicode="U" horiz-adv-x="1390" d="M154 504v930h256v-906q0 -346 292 -346q136 0 211.5 81t75.5 239v932h248v-920q0 -119 -32.5 -216.5t-98.5 -172.5t-174.5 -116.5t-251.5 -41.5q-256 0 -391 137.5t-135 399.5z" />
<glyph unicode="V" horiz-adv-x="1263" d="M10 1434h277l272 -852q38 -118 72 -291q31 143 82 291l286 852h269l-520 -1434h-248z" />
<glyph unicode="W" horiz-adv-x="1953" d="M29 1434h262l225 -856q29 -108 51 -263q22 133 60 263l239 856h242l225 -856q33 -128 53 -265q25 147 58 265l237 856h256l-434 -1434h-258l-221 856q-24 95 -45 215q-22 -126 -47 -215l-240 -856h-256z" />
<glyph unicode="X" horiz-adv-x="1198" d="M14 0l432 741l-403 693h293l270 -498l266 498h277l-395 -682l438 -752h-295l-305 563l-301 -563h-277z" />
<glyph unicode="Y" horiz-adv-x="1177" d="M-10 1434h299l231 -482q45 -94 72 -182q19 61 78 182l241 482h287l-483 -885v-549h-256v549z" />
<glyph unicode="Z" horiz-adv-x="1183" d="M86 0v193l539 794q97 142 186 248q-98 -8 -199 -8h-526v207h1010v-193l-539 -795q-73 -108 -186 -249q82 10 198 10h527v-207h-1010z" />
<glyph unicode="[" horiz-adv-x="659" d="M160 -410v1954h440v-186h-209v-1581h209v-187h-440z" />
<glyph unicode="\" horiz-adv-x="874" d="M63 1462h240l504 -1876h-240z" />
<glyph unicode="]" horiz-adv-x="659" d="M59 -223h209v1581h-209v186h441v-1954h-441v187z" />
<glyph unicode="^" horiz-adv-x="1232" d="M82 590l424 885h233l404 -885h-269l-253 680l-281 -680h-258z" />
<glyph unicode="_" horiz-adv-x="1032" d="M4 -186h1024v-197h-1024v197z" />
<glyph unicode="`" horiz-adv-x="1024" d="M283 1362l116 188l344 -237l-88 -139z" />
<glyph unicode="a" horiz-adv-x="1042" d="M63 285q0 117 67 194t180.5 110.5t271.5 33.5q38 0 92 -7v76q0 193 -209 193q-164 0 -295 -88l-49 182q164 94 391 94q194 0 296.5 -79t102.5 -267v-289q0 -117 2.5 -226t5.5 -160l3 -50q-72 -14 -111 -14q-129 0 -135 137q-107 -150 -311 -150q-132 0 -217 78.5 t-85 231.5zM301 303q0 -67 36.5 -104t102.5 -37q133 0 234 147v158q-55 6 -119 6q-116 0 -185 -40.5t-69 -129.5z" />
<glyph unicode="b" horiz-adv-x="1165" d="M137 49v1442l248 12v-366q0 -117 -12 -219q108 155 315 155q84 0 154 -29t125.5 -88.5t86.5 -159t31 -231.5q0 -282 -154.5 -436t-410.5 -154q-199 0 -383 74zM385 203q81 -31 160 -31q127 0 208 91.5t81 266.5q0 169 -59.5 252.5t-168.5 83.5q-127 0 -221 -131v-532z " />
<glyph unicode="c" horiz-adv-x="925" d="M76 522q0 244 149 397.5t377 153.5q160 0 264 -51l-35 -201q-96 45 -202 45q-137 0 -218 -83t-81 -261q0 -81 18 -143.5t48 -100.5t72.5 -62.5t86.5 -34t96 -9.5q102 0 178 43l37 -188q-117 -52 -274 -52q-119 0 -208.5 26.5t-161 87t-109 169.5t-37.5 264z" />
<glyph unicode="d" horiz-adv-x="1169" d="M78 485q0 280 155.5 434t411.5 154q66 0 141 -10q-8 98 -8 194v234l250 12v-1065q0 -117 2.5 -226t5.5 -160l2 -50q-72 -14 -110 -14q-127 0 -133 139q-108 -152 -320 -152q-84 0 -154 29t-125.5 88.5t-86.5 159.5t-31 233zM332 518q0 -168 58.5 -252t166.5 -84 q129 0 221 129v535q-78 33 -160 33q-125 0 -205.5 -92.5t-80.5 -268.5z" />
<glyph unicode="e" horiz-adv-x="1067" d="M78 522q0 247 135 399t360 152q193 0 305.5 -114.5t112.5 -337.5q0 -71 -8 -123h-661q13 -332 352 -332q137 0 254 47l33 -176q-144 -62 -345 -62q-127 0 -221.5 26.5t-168 87.5t-111 169.5t-37.5 263.5zM332 657h424q0 107 -55.5 170.5t-141.5 63.5q-92 0 -151 -57 t-76 -177z" />
<glyph unicode="f" horiz-adv-x="782" d="M45 864v185h164v135q0 156 100.5 247t276.5 91q121 0 227 -29l-27 -190q-82 28 -172 28q-85 0 -120 -39.5t-35 -124.5v-118h293v-185h-293v-864h-250v864h-164z" />
<glyph unicode="g" horiz-adv-x="1136" d="M59 -152q0 83 50.5 148.5t121.5 93.5q-127 52 -127 176q0 65 38 117t96 80q-109 91 -109 252q0 111 56 193.5t149.5 123.5t210.5 41q110 0 190 -26q191 0 367 8v-156q-66 -4 -111 -4q-51 0 -82 2q49 -79 49 -182q0 -161 -118.5 -260t-294.5 -99q-106 0 -197 33 q-43 -24 -43 -72q0 -37 42.5 -58t111 -29.5t151 -15.5t165 -22.5t151 -43.5t111 -86t42.5 -142q0 -179 -143.5 -286t-398.5 -107q-239 0 -358.5 89.5t-119.5 231.5zM291 -121q0 -87 80 -131.5t200 -44.5q117 0 196 42t79 128q0 20 -5 36.5t-16 30t-23 24.5t-33.5 19.5 t-38.5 15t-47.5 11.5t-50.5 8.5t-57 7t-59 5.5t-63 5q-9 1 -13.5 1t-12 1t-13.5 1q-123 -44 -123 -160zM354 715q0 -87 54 -141t137 -54q85 0 136.5 53.5t51.5 141.5q0 93 -50.5 143.5t-137.5 50.5q-88 0 -139.5 -50.5t-51.5 -143.5z" />
<glyph unicode="h" horiz-adv-x="1169" d="M141 0v1491l248 12v-366q0 -117 -12 -219q112 155 315 155q73 0 133 -19.5t109 -60t76.5 -111.5t27.5 -167v-715h-247v655q0 112 -46.5 161.5t-132.5 49.5q-133 0 -223 -131v-735h-248z" />
<glyph unicode="i" horiz-adv-x="534" d="M125 1364q0 62 41 100.5t102 38.5t102.5 -38.5t41.5 -100.5q0 -61 -41.5 -101t-102.5 -40t-102 40t-41 101zM143 0v1049h248v-1049h-248z" />
<glyph unicode="j" horiz-adv-x="534" d="M-66 -299q124 0 172 84q23 39 30 100.5t7 190.5v973h248v-986q0 -155 -17.5 -233.5t-64.5 -146.5q-108 -156 -352 -156zM125 1364q0 62 41 100.5t102 38.5t102.5 -38.5t41.5 -100.5q0 -61 -41.5 -101t-102.5 -40t-102 40t-41 101z" />
<glyph unicode="k" horiz-adv-x="1075" d="M141 0v1491l248 12v-895l359 441h280l-387 -459l432 -590h-299l-385 545v-545h-248z" />
<glyph unicode="l" horiz-adv-x="532" d="M139 143v1348l250 12v-1065q0 -117 2.5 -226t4.5 -160l3 -50q-72 -14 -110 -14q-150 0 -150 155z" />
<glyph unicode="m" horiz-adv-x="1804" d="M133 1049q72 14 111 14q127 0 133 -139q105 149 313 149q224 0 303 -168q119 168 340 168q72 0 131.5 -19.5t108 -60t75.5 -111.5t27 -167v-715h-250v655q0 113 -44 162t-130 49q-119 0 -219 -127v-739h-248v655q0 113 -44 162t-130 49q-129 0 -219 -127v-739h-248v610 q0 117 -2.5 227t-4.5 161z" />
<glyph unicode="n" d="M133 1049q72 14 111 14q126 0 133 -141q108 151 317 151q72 0 132 -19.5t109.5 -60t77 -111.5t27.5 -167v-715h-247v655q0 112 -46.5 161.5t-134.5 49.5q-131 0 -221 -131v-735h-248v610q0 117 -2.5 227t-4.5 161z" />
<glyph unicode="o" horiz-adv-x="1150" d="M78 524q0 247 131.5 398t365.5 151q134 0 231.5 -40t155 -114.5t84.5 -172t27 -222.5q0 -114 -33 -213.5t-94.5 -174.5t-157 -118t-213.5 -43q-125 0 -221.5 43t-156 118.5t-89.5 173.5t-30 214zM332 524q0 -164 67 -258t176 -94q120 0 183 91.5t63 260.5q0 355 -246 355 q-243 0 -243 -355z" />
<glyph unicode="p" d="M133 1049q72 14 111 14q126 0 133 -141q108 151 317 151q84 0 154 -29t125.5 -88.5t87 -159t31.5 -231.5q0 -282 -155 -436t-411 -154q-59 0 -145 11q10 -82 10 -195v-233l-248 -13v1065q0 117 -2.5 227t-4.5 161zM391 205q78 -33 162 -33q126 0 206.5 91.5t80.5 266.5 q0 169 -59.5 252.5t-168.5 83.5q-131 0 -221 -131v-530z" />
<glyph unicode="q" horiz-adv-x="1163" d="M78 485q0 280 155.5 434t411.5 154q205 0 383 -74v-1441l-250 -13v369q0 130 10 215q-111 -154 -313 -154q-84 0 -154 29t-125.5 88.5t-86.5 159.5t-31 233zM332 518q0 -168 58.5 -252t166.5 -84q129 0 221 129v535q-78 33 -160 33q-125 0 -205.5 -92.5t-80.5 -268.5z " />
<glyph unicode="r" horiz-adv-x="776" d="M133 1049q72 14 111 14q133 0 133 -158v-24q79 192 272 192q58 0 109 -14l-23 -234q-59 23 -121 23q-152 0 -223 -195v-653h-248v610q0 117 -2.5 227t-4.5 161z" />
<glyph unicode="s" horiz-adv-x="854" d="M70 39l32 188q132 -71 258 -71q168 0 168 118q0 40 -24 70.5t-62.5 51.5t-85 41t-93 45t-85 56.5t-62.5 83t-24 117.5q0 147 106.5 240.5t282.5 93.5q151 0 275 -47l-31 -192q-108 59 -236 59q-149 0 -149 -119q0 -37 24.5 -65.5t63.5 -48t86 -39t94 -44.5t86 -57.5 t63.5 -85.5t24.5 -121q0 -150 -113 -244t-294 -94q-177 0 -305 64z" />
<glyph unicode="t" horiz-adv-x="794" d="M45 864v185h168l20 260l209 45v-305h293v-185h-293v-530q0 -93 36.5 -127.5t103.5 -34.5q80 0 153 43l23 -174q-109 -66 -248 -66q-315 0 -315 297v592h-150z" />
<glyph unicode="u" d="M131 334v715h248v-656q0 -112 46 -161.5t132 -49.5q129 0 221 129v738h250v-611q0 -117 2.5 -226t5.5 -160l2 -50q-72 -14 -110 -14q-127 0 -133 139q-108 -152 -318 -152q-73 0 -133 19.5t-109 60.5t-76.5 112t-27.5 167z" />
<glyph unicode="v" horiz-adv-x="1060" d="M14 1049h269l190 -557q30 -85 57 -226q33 139 64 226l192 557h265l-404 -1049h-246z" />
<glyph unicode="w" horiz-adv-x="1617" d="M20 1049h254l158 -562q24 -91 47 -237q20 136 51 237l160 562h246l158 -562q24 -91 47 -237q20 136 51 237l162 562h248l-342 -1049h-254l-154 563q-31 117 -45 221q-20 -126 -47 -221l-160 -563h-254z" />
<glyph unicode="x" horiz-adv-x="1054" d="M25 0l344 541l-324 508h293l201 -349l192 349h268l-313 -496l350 -553h-291l-227 395l-227 -395h-266z" />
<glyph unicode="y" horiz-adv-x="1062" d="M14 1049h269l190 -557q35 -104 64 -256q34 157 67 256l182 557h265l-381 -1049q-92 -254 -207.5 -363.5t-290.5 -109.5q-44 0 -84 8l-27 197q33 -8 78 -8q82 0 142 35.5t108 138.5l31 65q-28 57 -64 156z" />
<glyph unicode="z" horiz-adv-x="991" d="M84 0v164l420 584q37 52 96 118q-76 -12 -197 -12h-319v195h825v-142l-440 -606q-45 -62 -96 -119q92 15 196 15h340v-197h-825z" />
<glyph unicode="{" horiz-adv-x="720" d="M27 496v184q45 0 79.5 10.5t64 35t45 72t15.5 115.5v256q0 174 82 274.5t232 100.5h117v-186q-120 0 -159.5 -42t-39.5 -167v-199q0 -116 -22.5 -191t-58.5 -111.5t-95 -59.5q87 -26 131.5 -109t44.5 -254v-239q0 -125 39.5 -167t159.5 -42v-187h-117q-158 0 -236 86.5 t-78 288.5v299q0 115 -56.5 173.5t-147.5 58.5z" />
<glyph unicode="|" horiz-adv-x="530" d="M160 -455v1979h211v-1979h-211z" />
<glyph unicode="}" horiz-adv-x="720" d="M59 -223q119 0 159 42.5t40 166.5v239q0 170 43.5 250t132.5 113q-88 28 -132 109.5t-44 252.5v199q0 124 -40 166.5t-159 42.5v186h115q160 0 237.5 -86t77.5 -289v-256q0 -116 56 -174.5t149 -58.5v-184q-95 0 -150 -51.5t-55 -180.5v-299q0 -175 -82 -275t-233 -100 h-115v187z" />
<glyph unicode="~" horiz-adv-x="1216" d="M111 565q40 56 109 94.5t147 38.5q94 0 251 -44t222 -44q63 0 121 29t96 70l49 -181q-40 -56 -109 -94.5t-147 -38.5q-94 0 -251 44t-222 44q-63 0 -121.5 -28.5t-95.5 -69.5z" />
<glyph unicode="&#xa1;" horiz-adv-x="507" d="M100 924q0 68 44.5 110.5t109.5 42.5q66 0 111 -42.5t45 -110.5q0 -64 -46 -110t-110 -46q-63 0 -108.5 46t-45.5 110zM117 -426l22 1067h230l24 -1067h-276z" />
<glyph unicode="&#xa2;" horiz-adv-x="927" d="M59 522q0 212 116.5 358.5t303.5 182.5v178h164v-170q121 -9 207 -49l-35 -201q-91 38 -172 43v-692q97 0 170 43l37 -188q-82 -38 -207 -50v-161h-164v166q-98 10 -172 42.5t-131 94.5t-87 163.5t-30 239.5zM313 522q0 -250 166 -321v641q-166 -71 -166 -320z" />
<glyph unicode="&#xa3;" horiz-adv-x="1116" d="M57 0v158q58 11 95.5 44t62.5 108.5t31 197.5l6 133h-166v195h176l10 178q7 118 43 206t97.5 141t140 79t176.5 26q159 0 299 -45l-22 -219q-130 60 -261 60q-44 0 -77 -8t-66.5 -31.5t-53.5 -74t-24 -126.5l-10 -186h436v-195h-446l-8 -168q-8 -171 -86 -280 q82 14 188 14h428v-207h-969z" />
<glyph unicode="&#xa4;" horiz-adv-x="1155" d="M74 84l157 178q-75 106 -75 262q0 153 75 260l-157 181l155 131l152 -189q89 39 197 39q114 0 198 -35l150 185l153 -131l-151 -172q71 -104 71 -269q0 -152 -77 -258l157 -182l-153 -131l-154 190q-84 -41 -194 -41q-111 0 -197 39l-152 -188zM371 524q0 -111 59.5 -177 t147.5 -66q96 0 151 64.5t55 178.5q0 121 -54.5 183.5t-151.5 62.5t-152 -62.5t-55 -183.5z" />
<glyph unicode="&#xa5;" horiz-adv-x="1341" d="M70 1434h297l231 -482q43 -91 72 -184q32 90 80 184l241 482h287l-297 -539q-40 -76 -113 -184h273v-160h-348v-117h348v-160h-348v-274h-254v274h-349v160h349v117h-349v160h275q-54 80 -109 184z" />
<glyph unicode="&#xa6;" horiz-adv-x="542" d="M166 262h211v-717h-211v717zM166 807v717h211v-717h-211z" />
<glyph unicode="&#xa7;" horiz-adv-x="948" d="M68 -319l22 221q65 -37 146.5 -61.5t154.5 -24.5q80 0 125 32t45 91q0 40 -26.5 79.5t-69 73.5t-93.5 69.5t-102.5 76t-94 85t-69 104t-26.5 126.5q0 102 45 181t131 124q-121 121 -121 264q0 152 110.5 248t297.5 96q159 0 299 -45l-23 -219q-130 60 -260 60 q-74 0 -118 -30.5t-44 -92.5q0 -40 26.5 -79.5t69 -73.5t94 -69.5t103 -76.5t94 -85.5t69 -104t26.5 -126.5q0 -102 -46 -181t-133 -124q123 -120 123 -264q0 -156 -113 -250t-311 -94q-188 0 -331 70zM301 596q0 -24 7 -45.5t24 -43t32.5 -38t45.5 -39t49 -35.5t57 -38 t57 -38q41 26 63.5 68.5t22.5 89.5q0 27 -12.5 54.5t-27 47t-48 47t-53.5 42t-67 46t-66 44.5q-84 -55 -84 -162z" />
<glyph unicode="&#xa8;" horiz-adv-x="1024" d="M188 1352q0 57 37 93t92 36q53 0 90 -37t37 -92q0 -52 -37 -89.5t-90 -37.5q-54 0 -91.5 37t-37.5 90zM580 1352q0 56 37 92.5t90 36.5q55 0 92 -36.5t37 -92.5q0 -53 -37.5 -90t-91.5 -37q-53 0 -90 37.5t-37 89.5z" />
<glyph unicode="&#xa9;" horiz-adv-x="1673" d="M66 717q0 218 103.5 395.5t279.5 276t387 98.5q220 0 396 -99t275 -275t99 -396q0 -218 -103.5 -395.5t-279.5 -276t-387 -98.5t-387 98.5t-279.5 276t-103.5 395.5zM238 717q0 -130 46.5 -244.5t127 -194.5t190.5 -126t234 -46t234 46t190.5 126t127 194.5t46.5 244.5 t-46.5 244t-127 194t-190.5 126t-234 46t-234 -46t-190.5 -126t-127 -194t-46.5 -244zM508 711q0 169 108 270.5t283 101.5q101 0 182 -24l-28 -141q-57 26 -133 26q-230 0 -230 -231q0 -113 63.5 -169.5t166.5 -56.5q75 0 133 25l28 -131q-81 -31 -192 -31q-381 0 -381 361 z" />
<glyph unicode="&#xaa;" horiz-adv-x="870" d="M127 932q0 117 94.5 173t261.5 56q18 0 54 -4v35q0 117 -136 117q-108 0 -200 -56l-35 138q116 61 274 61q137 0 210 -52.5t73 -180.5v-175q0 -83 1.5 -158t3.5 -109l1 -34q-55 -10 -88 -10q-92 0 -102 90q-71 -98 -209 -98q-90 0 -146.5 52.5t-56.5 154.5zM133 496v137 h590v-137h-590zM311 946q0 -80 82 -80q80 0 144 90v91q-46 4 -68 4q-158 0 -158 -105z" />
<glyph unicode="&#xab;" horiz-adv-x="1054" d="M80 526l227 443l207 -68l-184 -373l184 -374l-213 -68zM528 526l228 443l207 -68l-185 -373l185 -374l-213 -68z" />
<glyph unicode="&#xac;" horiz-adv-x="1052" d="M88 451v194h852v-495h-231v301h-621z" />
<glyph unicode="&#xad;" horiz-adv-x="806" d="M123 457v209h561v-209h-561z" />
<glyph unicode="&#xae;" horiz-adv-x="1673" d="M66 717q0 218 103.5 395.5t279.5 276t387 98.5q220 0 396 -99t275 -275t99 -396q0 -218 -103.5 -395.5t-279.5 -276t-387 -98.5t-387 98.5t-279.5 276t-103.5 395.5zM238 717q0 -130 46.5 -244.5t127 -194.5t190.5 -126t234 -46t234 46t190.5 126t127 194.5t46.5 244.5 t-46.5 244t-127 194t-190.5 126t-234 46t-234 -46t-190.5 -126t-127 -194t-46.5 -244zM573 367v698q73 10 218 10q163 0 240 -41.5t77 -148.5q0 -114 -119 -168q36 -17 60 -51t43 -95l61 -204h-182l-56 186q-15 51 -38 69.5t-66 18.5q-31 0 -63 -4v-270h-175zM748 760 q16 -2 63 -2q53 0 86 24.5t33 75.5q0 94 -119 94q-31 0 -63 -4v-188z" />
<glyph unicode="&#xaf;" horiz-adv-x="1024" d="M217 1264v174h590v-174h-590z" />
<glyph unicode="&#xb0;" horiz-adv-x="786" d="M72 1264q0 140 94 222.5t227 82.5q154 0 238 -79.5t84 -225.5q0 -128 -96 -215.5t-226 -87.5q-139 0 -230 86t-91 217zM262 1264q0 -54 39 -94t92 -40q55 0 94 40t39 94q0 61 -38 98t-95 37q-56 0 -93.5 -37t-37.5 -98z" />
<glyph unicode="&#xb1;" horiz-adv-x="1077" d="M82 94h911v-203h-911v203zM82 510v207h342v332h227v-332h342v-207h-342v-334h-227v334h-342z" />
<glyph unicode="&#xb2;" horiz-adv-x="722" d="M57 741v133q54 35 121 91.5t113 107.5q135 151 135 270q0 123 -145 123q-108 0 -181 -47l-34 142q108 55 266 55q299 0 299 -240q0 -59 -13.5 -111t-42.5 -100t-60 -87t-79 -89q-43 -45 -133 -106q92 10 186 10h183v-152h-615z" />
<glyph unicode="&#xb3;" horiz-adv-x="714" d="M53 760l17 151q103 -41 209 -41q81 0 125.5 34t44.5 91t-53.5 88t-149.5 31q-52 0 -96 -6l-9 135q279 0 279 139q0 91 -135 91q-100 0 -181 -48l-34 136q112 55 266 55q287 0 287 -195q0 -142 -156 -207q94 -22 139 -70.5t45 -131.5q0 -125 -102 -205t-256 -80 q-131 0 -240 33z" />
<glyph unicode="&#xb4;" horiz-adv-x="1024" d="M283 1313l344 237l116 -188l-372 -188z" />
<glyph unicode="&#xb5;" horiz-adv-x="1153" d="M106 -455v1504h248v-656q0 -113 51 -162t154 -49q123 0 217 131v736h248v-611q0 -117 2.5 -226t5.5 -160l2 -50q-72 -14 -108 -14q-129 0 -135 139q-108 -152 -318 -152q-55 0 -135 25q16 -94 16 -184v-258z" />
<glyph unicode="&#xb6;" horiz-adv-x="1333" d="M63 991q0 194 129 318.5t316 124.5h197v-1803h-197v916q-124 0 -223.5 50.5t-160.5 153t-61 240.5zM862 -369v1803h404v-164h-205v-1639h-199z" />
<glyph unicode="&#xb7;" horiz-adv-x="544" d="M117 569q0 68 44.5 111t108.5 43q66 0 111 -43t45 -111q0 -64 -45.5 -109.5t-110.5 -45.5q-63 0 -108 45.5t-45 109.5z" />
<glyph unicode="&#xb8;" horiz-adv-x="1024" d="M297 -442l29 135q66 -41 133 -41q45 0 67.5 20t22.5 54q0 51 -53 73q-46 16 -111 19l31 202h151l-14 -116l31 -6q143 -27 143 -164q0 -96 -67 -154.5t-183 -58.5q-92 0 -180 37z" />
<glyph unicode="&#xb9;" horiz-adv-x="555" d="M14 1454l256 148h172v-861h-200v539q0 89 10 154q-53 -46 -100 -66l-95 -41z" />
<glyph unicode="&#xba;" horiz-adv-x="952" d="M127 1090q0 164 92.5 263t255.5 99q348 0 348 -362q0 -159 -93 -262t-255 -103q-171 0 -259.5 101.5t-88.5 263.5zM141 496v137h670v-137h-670zM328 1090q0 -102 40.5 -160t106.5 -58q73 0 111.5 56.5t38.5 161.5q0 215 -150 215q-147 0 -147 -215z" />
<glyph unicode="&#xbb;" horiz-adv-x="1052" d="M90 154l186 370l-186 377l213 68l221 -443l-227 -440zM539 154l186 370l-186 377l213 68l221 -443l-228 -440z" />
<glyph unicode="&#xbc;" horiz-adv-x="1792" d="M12 1286l256 148h172v-861h-200v539q0 89 10 154q-53 -46 -100 -66l-95 -41zM252 -61l948 1642l146 -86l-947 -1642zM1079 238v129l191 493h186l-143 -377q-9 -25 -26 -63t-19 -43q62 4 94 4h113v258h186v-258h90v-143h-90v-238h-191v238h-391z" />
<glyph unicode="&#xbd;" horiz-adv-x="1759" d="M12 1286l256 148h172v-861h-200v539q0 89 10 154q-53 -46 -100 -66l-95 -41zM252 -61l948 1642l146 -86l-947 -1642zM1092 0v133q54 35 120.5 91.5t112.5 107.5q135 151 135 270q0 123 -145 123q-107 0 -180 -47l-35 141q108 55 266 55q299 0 299 -239q0 -59 -13.5 -111 t-42.5 -100t-60 -87t-79 -89q-45 -48 -133 -107q101 11 187 11h182v-152h-614z" />
<glyph unicode="&#xbe;" horiz-adv-x="1949" d="M51 592l17 151q103 -41 208 -41q81 0 125.5 34t44.5 91t-53 88t-149 31q-54 0 -97 -6l-8 135q279 0 279 139q0 91 -135 91q-100 0 -181 -48l-34 136q112 55 266 55q287 0 287 -195q0 -141 -156 -206q94 -22 139 -71t45 -132q0 -125 -102 -205t-256 -80q-131 0 -240 33z M410 -61l948 1642l145 -86l-946 -1642zM1237 238v129l190 493h187l-144 -377q-9 -25 -26 -63t-19 -43q62 4 95 4h112v258h187v-258h90v-143h-90v-238h-191v238h-391z" />
<glyph unicode="&#xbf;" horiz-adv-x="950" d="M82 -115q0 64 17 118.5t54.5 103.5t78.5 88.5t106 91.5q117 97 117 245q0 60 -9 103l246 14q10 -45 10 -131q0 -99 -44 -189t-134 -155q-107 -77 -145.5 -128t-38.5 -128q0 -81 62.5 -125.5t158.5 -44.5q82 0 159 31t132 71l51 -190q-67 -48 -175.5 -83.5t-217.5 -35.5 q-198 0 -313 87.5t-115 256.5zM410 924q0 68 44.5 110.5t108.5 42.5q66 0 111 -42.5t45 -110.5q0 -64 -45.5 -110t-110.5 -46q-63 0 -108 46t-45 110z" />
<glyph unicode="&#xc0;" horiz-adv-x="1267" d="M-2 0l520 1434h248l489 -1434h-268l-104 334h-514l-109 -334h-262zM391 1714l117 189l344 -238l-88 -139zM432 532h389l-116 381q-37 113 -70 277q-48 -185 -78 -277z" />
<glyph unicode="&#xc1;" horiz-adv-x="1267" d="M-2 0l520 1434h248l489 -1434h-268l-104 334h-514l-109 -334h-262zM432 532h389l-116 381q-37 113 -70 277q-48 -185 -78 -277zM473 1665l344 238l117 -189l-373 -188z" />
<glyph unicode="&#xc2;" horiz-adv-x="1267" d="M-2 0l520 1434h248l489 -1434h-268l-104 334h-514l-109 -334h-262zM303 1702l338 182l340 -178l-84 -152l-262 123l-248 -123zM432 532h389l-116 381q-37 113 -70 277q-48 -185 -78 -277z" />
<glyph unicode="&#xc3;" horiz-adv-x="1267" d="M-2 0l520 1434h248l489 -1434h-268l-104 334h-514l-109 -334h-262zM301 1731q29 45 77 74.5t109 29.5q64 0 154 -27.5t145 -27.5q91 0 154 63l45 -143q-29 -46 -77.5 -76.5t-108.5 -30.5q-64 0 -154 29t-145 29q-91 0 -152 -64zM432 532h389l-116 381q-37 113 -70 277 q-48 -185 -78 -277z" />
<glyph unicode="&#xc4;" horiz-adv-x="1267" d="M-2 0l520 1434h248l489 -1434h-268l-104 334h-514l-109 -334h-262zM319 1704q0 57 37.5 93t92.5 36q53 0 89.5 -37t36.5 -92q0 -53 -37 -90t-89 -37q-54 0 -92 37t-38 90zM432 532h389l-116 381q-37 113 -70 277q-48 -185 -78 -277zM711 1704q0 56 37 92.5t90 36.5 q55 0 92 -36.5t37 -92.5q0 -53 -37.5 -90t-91.5 -37q-52 0 -89.5 37.5t-37.5 89.5z" />
<glyph unicode="&#xc5;" horiz-adv-x="1267" d="M-2 0l520 1434h248l489 -1434h-268l-104 334h-514l-109 -334h-262zM432 532h389l-116 381q-37 113 -70 277q-48 -185 -78 -277zM434 1737q0 92 60.5 151.5t148.5 59.5t148.5 -59.5t60.5 -151.5q0 -86 -61.5 -147.5t-147.5 -61.5t-147.5 61.5t-61.5 147.5zM557 1737 q0 -35 25.5 -59.5t60.5 -24.5t60.5 24.5t25.5 59.5q0 39 -25 62.5t-61 23.5t-61 -23.5t-25 -62.5z" />
<glyph unicode="&#xc6;" horiz-adv-x="1798" d="M-43 0l801 1434h934v-207h-594v-391h526v-195h-526v-434h602v-207h-848v334h-442l-177 -334h-276zM516 532h336v195q0 306 10 494q-95 -213 -196 -406z" />
<glyph unicode="&#xc7;" horiz-adv-x="1179" d="M86 713q0 339 194 546t511 207q188 0 337 -55l-47 -221q-117 57 -270 57q-227 0 -344 -136.5t-117 -393.5q0 -261 127 -398t336 -137q146 0 268 56l47 -203q-142 -68 -348 -68h-37l-8 -67l31 -6q143 -27 143 -164q0 -96 -67 -154.5t-183 -58.5q-92 0 -180 37l29 135 q66 -41 133 -41q90 0 90 73q0 52 -53 74q-46 16 -111 19l25 170q-506 92 -506 729z" />
<glyph unicode="&#xc8;" horiz-adv-x="1126" d="M170 0v1434h850v-207h-594v-391h526v-195h-526v-434h602v-207h-858zM330 1714l116 189l345 -238l-89 -139z" />
<glyph unicode="&#xc9;" horiz-adv-x="1126" d="M170 0v1434h850v-207h-594v-391h526v-195h-526v-434h602v-207h-858zM420 1665l344 238l117 -189l-373 -188z" />
<glyph unicode="&#xca;" horiz-adv-x="1126" d="M170 0v1434h850v-207h-594v-391h526v-195h-526v-434h602v-207h-858zM256 1702l338 182l340 -178l-84 -152l-262 123l-248 -123z" />
<glyph unicode="&#xcb;" horiz-adv-x="1126" d="M170 0v1434h850v-207h-594v-391h526v-195h-526v-434h602v-207h-858zM272 1704q0 57 37 93t92 36q53 0 90 -37t37 -92q0 -52 -37 -89.5t-90 -37.5q-54 0 -91.5 37t-37.5 90zM664 1704q0 56 37 92.5t90 36.5q55 0 92 -36.5t37 -92.5q0 -53 -37.5 -90t-91.5 -37 q-53 0 -90 37.5t-37 89.5z" />
<glyph unicode="&#xcc;" horiz-adv-x="593" d="M45 1714l117 189l344 -238l-88 -139zM170 0v1434h254v-1434h-254z" />
<glyph unicode="&#xcd;" horiz-adv-x="593" d="M109 1665l344 238l116 -189l-372 -188zM170 0v1434h254v-1434h-254z" />
<glyph unicode="&#xce;" horiz-adv-x="593" d="M-43 1702l338 182l340 -178l-84 -152l-262 123l-248 -123zM170 0v1434h254v-1434h-254z" />
<glyph unicode="&#xcf;" horiz-adv-x="593" d="M-27 1704q0 57 37 93t92 36q53 0 90 -37t37 -92q0 -52 -37.5 -89.5t-89.5 -37.5q-54 0 -91.5 37t-37.5 90zM170 0v1434h254v-1434h-254zM365 1704q0 56 37 92.5t90 36.5q55 0 92 -36.5t37 -92.5q0 -53 -37.5 -90t-91.5 -37q-52 0 -89.5 37.5t-37.5 89.5z" />
<glyph unicode="&#xd0;" horiz-adv-x="1390" d="M37 659v191h141v580q188 16 381 16q139 0 251.5 -22.5t205.5 -73t156 -128.5t97 -192.5t34 -261.5q0 -189 -58.5 -339.5t-160.5 -245.5t-235.5 -145t-289.5 -50q-193 0 -381 16v655h-141zM432 203q74 -8 139 -8q224 0 345.5 145t121.5 416q0 126 -36 221t-100.5 151 t-147.5 83.5t-183 27.5q-65 0 -139 -8v-381h273v-191h-273v-456z" />
<glyph unicode="&#xd1;" horiz-adv-x="1443" d="M170 0v1434h262l473 -775q71 -118 154 -307q-12 190 -12 477v605h227v-1434h-262l-475 774q-76 125 -152 301q12 -254 12 -471v-604h-227zM381 1731q29 45 77 74.5t109 29.5q64 0 154 -27.5t145 -27.5q91 0 154 63l45 -143q-29 -46 -77.5 -76.5t-108.5 -30.5 q-64 0 -154 29t-145 29q-91 0 -152 -64z" />
<glyph unicode="&#xd2;" horiz-adv-x="1476" d="M86 717q0 340 176.5 544.5t474.5 204.5q170 0 296.5 -53t204 -153t115.5 -235.5t38 -307.5q0 -213 -79 -383t-229 -268.5t-346 -98.5q-158 0 -282.5 57t-204.5 158.5t-122 237.5t-42 297zM350 717q0 -129 31.5 -233t86 -169t123.5 -99t146 -34q174 0 281.5 138.5 t107.5 396.5q0 269 -106 401.5t-283 132.5q-176 0 -281.5 -132.5t-105.5 -401.5zM489 1714l117 189l344 -238l-88 -139z" />
<glyph unicode="&#xd3;" horiz-adv-x="1476" d="M86 717q0 340 176.5 544.5t474.5 204.5q170 0 296.5 -53t204 -153t115.5 -235.5t38 -307.5q0 -213 -79 -383t-229 -268.5t-346 -98.5q-158 0 -282.5 57t-204.5 158.5t-122 237.5t-42 297zM350 717q0 -129 31.5 -233t86 -169t123.5 -99t146 -34q174 0 281.5 138.5 t107.5 396.5q0 269 -106 401.5t-283 132.5q-176 0 -281.5 -132.5t-105.5 -401.5zM578 1665l344 238l116 -189l-372 -188z" />
<glyph unicode="&#xd4;" horiz-adv-x="1476" d="M86 717q0 340 176.5 544.5t474.5 204.5q170 0 296.5 -53t204 -153t115.5 -235.5t38 -307.5q0 -213 -79 -383t-229 -268.5t-346 -98.5q-158 0 -282.5 57t-204.5 158.5t-122 237.5t-42 297zM350 717q0 -129 31.5 -233t86 -169t123.5 -99t146 -34q174 0 281.5 138.5 t107.5 396.5q0 269 -106 401.5t-283 132.5q-176 0 -281.5 -132.5t-105.5 -401.5zM399 1702l338 182l340 -178l-84 -152l-262 123l-248 -123z" />
<glyph unicode="&#xd5;" horiz-adv-x="1476" d="M86 717q0 340 176.5 544.5t474.5 204.5q170 0 296.5 -53t204 -153t115.5 -235.5t38 -307.5q0 -213 -79 -383t-229 -268.5t-346 -98.5q-158 0 -282.5 57t-204.5 158.5t-122 237.5t-42 297zM350 717q0 -129 31.5 -233t86 -169t123.5 -99t146 -34q174 0 281.5 138.5 t107.5 396.5q0 269 -106 401.5t-283 132.5q-176 0 -281.5 -132.5t-105.5 -401.5zM395 1731q29 45 77.5 74.5t109.5 29.5q64 0 154 -27.5t145 -27.5q90 0 153 63l45 -143q-29 -46 -77.5 -76.5t-108.5 -30.5q-64 0 -154 29t-145 29q-91 0 -152 -64z" />
<glyph unicode="&#xd6;" horiz-adv-x="1476" d="M86 717q0 340 176.5 544.5t474.5 204.5q170 0 296.5 -53t204 -153t115.5 -235.5t38 -307.5q0 -213 -79 -383t-229 -268.5t-346 -98.5q-158 0 -282.5 57t-204.5 158.5t-122 237.5t-42 297zM350 717q0 -129 31.5 -233t86 -169t123.5 -99t146 -34q174 0 281.5 138.5 t107.5 396.5q0 269 -106 401.5t-283 132.5q-176 0 -281.5 -132.5t-105.5 -401.5zM414 1704q0 57 37 93t92 36q53 0 90 -37t37 -92q0 -52 -37 -89.5t-90 -37.5q-54 0 -91.5 37t-37.5 90zM805 1704q0 56 37 92.5t90 36.5q55 0 92 -36.5t37 -92.5q0 -53 -37.5 -90t-91.5 -37 q-52 0 -89.5 37.5t-37.5 89.5z" />
<glyph unicode="&#xd7;" horiz-adv-x="1001" d="M76 248l270 270l-268 270l160 160l270 -270l272 272l146 -145l-273 -273l273 -270l-162 -162l-270 271l-271 -271z" />
<glyph unicode="&#xd8;" horiz-adv-x="1476" d="M86 717q0 340 176.5 544.5t474.5 204.5q199 0 344 -77l131 200l131 -86l-137 -211q185 -191 185 -575q0 -213 -79 -383t-229 -268.5t-346 -98.5q-190 0 -336 84l-135 -207l-131 86l144 220q-193 202 -193 567zM350 717q0 -201 76 -340l524 809q-85 65 -213 65 q-176 0 -281.5 -132.5t-105.5 -401.5zM530 252q91 -70 207 -70q174 0 281.5 138.5t107.5 396.5q0 209 -69 344z" />
<glyph unicode="&#xd9;" horiz-adv-x="1390" d="M154 504v930h256v-906q0 -346 292 -346q136 0 211.5 81t75.5 239v932h248v-920q0 -119 -32.5 -216.5t-98.5 -172.5t-174.5 -116.5t-251.5 -41.5q-256 0 -391 137.5t-135 399.5zM436 1714l117 189l344 -238l-88 -139z" />
<glyph unicode="&#xda;" horiz-adv-x="1390" d="M154 504v930h256v-906q0 -346 292 -346q136 0 211.5 81t75.5 239v932h248v-920q0 -119 -32.5 -216.5t-98.5 -172.5t-174.5 -116.5t-251.5 -41.5q-256 0 -391 137.5t-135 399.5zM526 1665l344 238l117 -189l-373 -188z" />
<glyph unicode="&#xdb;" horiz-adv-x="1390" d="M154 504v930h256v-906q0 -346 292 -346q136 0 211.5 81t75.5 239v932h248v-920q0 -119 -32.5 -216.5t-98.5 -172.5t-174.5 -116.5t-251.5 -41.5q-256 0 -391 137.5t-135 399.5zM360 1702l338 182l340 -178l-84 -152l-262 123l-248 -123z" />
<glyph unicode="&#xdc;" horiz-adv-x="1390" d="M154 504v930h256v-906q0 -346 292 -346q136 0 211.5 81t75.5 239v932h248v-920q0 -119 -32.5 -216.5t-98.5 -172.5t-174.5 -116.5t-251.5 -41.5q-256 0 -391 137.5t-135 399.5zM375 1704q0 57 37 93t92 36q53 0 90 -37t37 -92q0 -52 -37.5 -89.5t-89.5 -37.5 q-54 0 -91.5 37t-37.5 90zM766 1704q0 56 37 92.5t90 36.5q55 0 92 -36.5t37 -92.5q0 -53 -37.5 -90t-91.5 -37q-53 0 -90 37.5t-37 89.5z" />
<glyph unicode="&#xdd;" horiz-adv-x="1177" d="M-10 1434h299l231 -482q45 -94 72 -182q19 61 78 182l241 482h287l-483 -885v-549h-256v549zM467 1665l344 238l117 -189l-373 -188z" />
<glyph unicode="&#xde;" d="M170 0v1434h256v-215q19 0 61 1t64 1q297 0 433 -100.5t136 -340.5q0 -226 -151.5 -366t-407.5 -140q-74 0 -135 7v-281h-256zM426 477q53 -6 139 -6q297 0 297 291q0 136 -79 199t-218 63q-69 0 -139 -8v-539z" />
<glyph unicode="&#xdf;" horiz-adv-x="1179" d="M141 0v1065q0 121 38.5 211t108 142.5t158.5 78t199 25.5q184 0 287.5 -80t103.5 -217q0 -88 -34.5 -151.5t-104.5 -125.5q-50 -45 -72 -83t-22 -87q0 -37 24.5 -69t61 -55t79.5 -54.5t79.5 -65t61 -89.5t24.5 -126q0 -150 -107.5 -247t-286.5 -97q-130 0 -233 41l31 187 q96 -47 200 -47q66 0 104 36.5t38 92.5q0 41 -18 75.5t-46.5 60.5t-63 50.5t-69 51t-63 56t-46.5 71.5t-18 91q0 74 30 134.5t103 123.5q50 44 72 84t22 97q0 67 -45 108t-121 41q-109 0 -168 -71t-59 -234v-1024h-248z" />
<glyph unicode="&#xe0;" horiz-adv-x="1042" d="M63 285q0 117 67 194t180.5 110.5t271.5 33.5q38 0 92 -7v76q0 193 -209 193q-164 0 -295 -88l-49 182q164 94 391 94q194 0 296.5 -79t102.5 -267v-289q0 -117 2.5 -226t5.5 -160l3 -50q-72 -14 -111 -14q-129 0 -135 137q-107 -150 -311 -150q-132 0 -217 78.5 t-85 231.5zM262 1362l117 188l344 -237l-88 -139zM301 303q0 -67 36.5 -104t102.5 -37q133 0 234 147v158q-55 6 -119 6q-116 0 -185 -40.5t-69 -129.5z" />
<glyph unicode="&#xe1;" horiz-adv-x="1042" d="M63 285q0 117 67 194t180.5 110.5t271.5 33.5q38 0 92 -7v76q0 193 -209 193q-164 0 -295 -88l-49 182q164 94 391 94q194 0 296.5 -79t102.5 -267v-289q0 -117 2.5 -226t5.5 -160l3 -50q-72 -14 -111 -14q-129 0 -135 137q-107 -150 -311 -150q-132 0 -217 78.5 t-85 231.5zM301 303q0 -67 36.5 -104t102.5 -37q133 0 234 147v158q-55 6 -119 6q-116 0 -185 -40.5t-69 -129.5zM344 1313l344 237l117 -188l-373 -188z" />
<glyph unicode="&#xe2;" horiz-adv-x="1042" d="M63 285q0 117 67 194t180.5 110.5t271.5 33.5q38 0 92 -7v76q0 193 -209 193q-164 0 -295 -88l-49 182q164 94 391 94q194 0 296.5 -79t102.5 -267v-289q0 -117 2.5 -226t5.5 -160l3 -50q-72 -14 -111 -14q-129 0 -135 137q-107 -150 -311 -150q-132 0 -217 78.5 t-85 231.5zM176 1350l338 182l340 -178l-84 -152l-262 123l-248 -123zM301 303q0 -67 36.5 -104t102.5 -37q133 0 234 147v158q-55 6 -119 6q-116 0 -185 -40.5t-69 -129.5z" />
<glyph unicode="&#xe3;" horiz-adv-x="1042" d="M63 285q0 117 67 194t180.5 110.5t271.5 33.5q38 0 92 -7v76q0 193 -209 193q-164 0 -295 -88l-49 182q164 94 391 94q194 0 296.5 -79t102.5 -267v-289q0 -117 2.5 -226t5.5 -160l3 -50q-72 -14 -111 -14q-129 0 -135 137q-107 -150 -311 -150q-132 0 -217 78.5 t-85 231.5zM172 1378q29 45 77 75t109 30q64 0 154 -28t145 -28q90 0 154 64l45 -143q-29 -46 -77.5 -76.5t-108.5 -30.5q-64 0 -154 28.5t-145 28.5q-92 0 -152 -63zM301 303q0 -67 36.5 -104t102.5 -37q133 0 234 147v158q-55 6 -119 6q-116 0 -185 -40.5t-69 -129.5z" />
<glyph unicode="&#xe4;" horiz-adv-x="1042" d="M63 285q0 117 67 194t180.5 110.5t271.5 33.5q38 0 92 -7v76q0 193 -209 193q-164 0 -295 -88l-49 182q164 94 391 94q194 0 296.5 -79t102.5 -267v-289q0 -117 2.5 -226t5.5 -160l3 -50q-72 -14 -111 -14q-129 0 -135 137q-107 -150 -311 -150q-132 0 -217 78.5 t-85 231.5zM193 1352q0 57 37 93t92 36q53 0 90 -37t37 -92q0 -52 -37.5 -89.5t-89.5 -37.5q-54 0 -91.5 37t-37.5 90zM301 303q0 -67 36.5 -104t102.5 -37q133 0 234 147v158q-55 6 -119 6q-116 0 -185 -40.5t-69 -129.5zM584 1352q0 56 37 92.5t90 36.5q55 0 92 -36.5 t37 -92.5q0 -53 -37.5 -90t-91.5 -37q-53 0 -90 37.5t-37 89.5z" />
<glyph unicode="&#xe5;" horiz-adv-x="1042" d="M63 285q0 117 67 194t180.5 110.5t271.5 33.5q38 0 92 -7v76q0 193 -209 193q-164 0 -295 -88l-49 182q164 94 391 94q194 0 296.5 -79t102.5 -267v-289q0 -117 2.5 -226t5.5 -160l3 -50q-72 -14 -111 -14q-129 0 -135 137q-107 -150 -311 -150q-132 0 -217 78.5 t-85 231.5zM301 303q0 -67 36.5 -104t102.5 -37q133 0 234 147v158q-55 6 -119 6q-116 0 -185 -40.5t-69 -129.5zM307 1384q0 92 60.5 151.5t148.5 59.5t148.5 -59.5t60.5 -151.5q0 -86 -61.5 -147t-147.5 -61t-147.5 61t-61.5 147zM430 1384q0 -35 25.5 -59.5t60.5 -24.5 t60.5 24.5t25.5 59.5q0 39 -25 62.5t-61 23.5t-61 -23.5t-25 -62.5z" />
<glyph unicode="&#xe6;" horiz-adv-x="1650" d="M63 285q0 175 141 266.5t380 91.5q46 0 92 -6v55q0 193 -209 193q-164 0 -295 -88l-49 182q164 94 391 94q125 0 201 -35.5t110 -119.5q117 155 330 155q194 0 306 -117t112 -352q0 -64 -6 -123h-664q20 -315 352 -315q136 0 256 47l33 -176q-144 -62 -346 -62 q-317 0 -436 191q-128 -191 -387 -191q-137 0 -224.5 78t-87.5 232zM301 303q0 -67 37.5 -104t103.5 -37q144 0 244 178q-10 62 -10 145q-65 7 -119 7q-113 0 -184.5 -49t-71.5 -140zM913 643h426q0 117 -55 182.5t-141 65.5q-92 0 -153 -59t-77 -189z" />
<glyph unicode="&#xe7;" horiz-adv-x="925" d="M76 522q0 244 149 397.5t377 153.5q160 0 264 -51l-35 -201q-96 45 -202 45q-137 0 -218 -83t-81 -261q0 -81 18 -143.5t48 -100.5t72.5 -62.5t86.5 -34t96 -9.5q102 0 178 43l37 -188q-117 -52 -274 -52h-10l-9 -71l31 -6q67 -13 105.5 -54t38.5 -110q0 -96 -67 -154.5 t-183 -58.5q-93 0 -181 37l29 135q66 -41 133 -41q45 0 67.5 20t22.5 54q0 51 -53 73q-47 16 -110 19l24 172q-170 34 -262 160t-92 372z" />
<glyph unicode="&#xe8;" horiz-adv-x="1067" d="M78 522q0 247 135 399t360 152q193 0 305.5 -114.5t112.5 -337.5q0 -71 -8 -123h-661q13 -332 352 -332q137 0 254 47l33 -176q-144 -62 -345 -62q-127 0 -221.5 26.5t-168 87.5t-111 169.5t-37.5 263.5zM332 657h424q0 107 -55.5 170.5t-141.5 63.5q-92 0 -151 -57 t-76 -177zM332 1362l117 188l344 -237l-88 -139z" />
<glyph unicode="&#xe9;" horiz-adv-x="1067" d="M78 522q0 247 135 399t360 152q193 0 305.5 -114.5t112.5 -337.5q0 -71 -8 -123h-661q13 -332 352 -332q137 0 254 47l33 -176q-144 -62 -345 -62q-127 0 -221.5 26.5t-168 87.5t-111 169.5t-37.5 263.5zM332 657h424q0 107 -55.5 170.5t-141.5 63.5q-92 0 -151 -57 t-76 -177zM391 1313l344 237l117 -188l-373 -188z" />
<glyph unicode="&#xea;" horiz-adv-x="1067" d="M78 522q0 247 135 399t360 152q193 0 305.5 -114.5t112.5 -337.5q0 -71 -8 -123h-661q13 -332 352 -332q137 0 254 47l33 -176q-144 -62 -345 -62q-127 0 -221.5 26.5t-168 87.5t-111 169.5t-37.5 263.5zM231 1350l338 182l340 -178l-84 -152l-262 123l-248 -123z M332 657h424q0 107 -55.5 170.5t-141.5 63.5q-92 0 -151 -57t-76 -177z" />
<glyph unicode="&#xeb;" horiz-adv-x="1067" d="M78 522q0 247 135 399t360 152q193 0 305.5 -114.5t112.5 -337.5q0 -71 -8 -123h-661q13 -332 352 -332q137 0 254 47l33 -176q-144 -62 -345 -62q-127 0 -221.5 26.5t-168 87.5t-111 169.5t-37.5 263.5zM242 1352q0 57 37 93t92 36q53 0 90 -37t37 -92q0 -52 -37 -89.5 t-90 -37.5q-54 0 -91.5 37t-37.5 90zM332 657h424q0 107 -55.5 170.5t-141.5 63.5q-92 0 -151 -57t-76 -177zM633 1352q0 56 37 92.5t90 36.5q55 0 92 -36.5t37 -92.5q0 -53 -37.5 -90t-91.5 -37q-52 0 -89.5 37.5t-37.5 89.5z" />
<glyph unicode="&#xec;" horiz-adv-x="534" d="M14 1362l117 188l344 -237l-88 -139zM143 0v1049h248v-1049h-248z" />
<glyph unicode="&#xed;" horiz-adv-x="534" d="M82 1313l344 237l117 -188l-373 -188zM143 0v1049h248v-1049h-248z" />
<glyph unicode="&#xee;" horiz-adv-x="534" d="M-72 1350l338 182l340 -178l-84 -152l-262 123l-248 -123zM143 0v1049h248v-1049h-248z" />
<glyph unicode="&#xef;" horiz-adv-x="534" d="M-55 1352q0 57 37 93t92 36q53 0 90 -37t37 -92q0 -52 -37.5 -89.5t-89.5 -37.5q-54 0 -91.5 37t-37.5 90zM143 0v1049h248v-1049h-248zM336 1352q0 56 37 92.5t90 36.5q55 0 92 -36.5t37 -92.5q0 -53 -37.5 -90t-91.5 -37q-53 0 -90 37.5t-37 89.5z" />
<glyph unicode="&#xf0;" horiz-adv-x="1155" d="M78 500q0 229 125.5 371.5t345.5 142.5q130 0 215 -82q-66 152 -178 258l-238 -146l-78 132l191 118q-97 64 -223 115l147 137q159 -52 277 -137l219 137l82 -135l-175 -108q269 -276 269 -742q0 -124 -31.5 -230t-91.5 -186t-154.5 -125t-212.5 -45q-120 0 -214.5 40.5 t-153.5 112.5t-90 166.5t-31 205.5zM332 500q0 -153 66 -240.5t169 -87.5q113 0 175.5 86t62.5 242q0 319 -238 319q-235 0 -235 -319z" />
<glyph unicode="&#xf1;" d="M133 1049q72 14 111 14q126 0 133 -141q108 151 317 151q72 0 132 -19.5t109.5 -60t77 -111.5t27.5 -167v-715h-247v655q0 112 -46.5 161.5t-134.5 49.5q-131 0 -221 -131v-735h-248v610q0 117 -2.5 227t-4.5 161zM250 1378q29 45 77 75t109 30q64 0 154 -28t145 -28 q90 0 154 64l45 -143q-29 -46 -77.5 -76.5t-108.5 -30.5q-64 0 -154 28.5t-145 28.5q-92 0 -152 -63z" />
<glyph unicode="&#xf2;" horiz-adv-x="1150" d="M78 524q0 247 131.5 398t365.5 151q134 0 231.5 -40t155 -114.5t84.5 -172t27 -222.5q0 -114 -33 -213.5t-94.5 -174.5t-157 -118t-213.5 -43q-125 0 -221.5 43t-156 118.5t-89.5 173.5t-30 214zM330 1362l116 188l345 -237l-89 -139zM332 524q0 -164 67 -258t176 -94 q120 0 183 91.5t63 260.5q0 355 -246 355q-243 0 -243 -355z" />
<glyph unicode="&#xf3;" horiz-adv-x="1150" d="M78 524q0 247 131.5 398t365.5 151q134 0 231.5 -40t155 -114.5t84.5 -172t27 -222.5q0 -114 -33 -213.5t-94.5 -174.5t-157 -118t-213.5 -43q-125 0 -221.5 43t-156 118.5t-89.5 173.5t-30 214zM332 524q0 -164 67 -258t176 -94q120 0 183 91.5t63 260.5q0 355 -246 355 q-243 0 -243 -355zM408 1313l344 237l116 -188l-372 -188z" />
<glyph unicode="&#xf4;" horiz-adv-x="1150" d="M78 524q0 247 131.5 398t365.5 151q134 0 231.5 -40t155 -114.5t84.5 -172t27 -222.5q0 -114 -33 -213.5t-94.5 -174.5t-157 -118t-213.5 -43q-125 0 -221.5 43t-156 118.5t-89.5 173.5t-30 214zM238 1350l337 182l340 -178l-84 -152l-262 123l-247 -123zM332 524 q0 -164 67 -258t176 -94q120 0 183 91.5t63 260.5q0 355 -246 355q-243 0 -243 -355z" />
<glyph unicode="&#xf5;" horiz-adv-x="1150" d="M78 524q0 247 131.5 398t365.5 151q134 0 231.5 -40t155 -114.5t84.5 -172t27 -222.5q0 -114 -33 -213.5t-94.5 -174.5t-157 -118t-213.5 -43q-125 0 -221.5 43t-156 118.5t-89.5 173.5t-30 214zM233 1378q29 45 77.5 75t109.5 30q64 0 154 -28t145 -28q89 0 153 64 l46 -143q-29 -46 -78 -76.5t-109 -30.5q-64 0 -154 28.5t-145 28.5q-91 0 -151 -63zM332 524q0 -164 67 -258t176 -94q120 0 183 91.5t63 260.5q0 355 -246 355q-243 0 -243 -355z" />
<glyph unicode="&#xf6;" horiz-adv-x="1150" d="M78 524q0 247 131.5 398t365.5 151q134 0 231.5 -40t155 -114.5t84.5 -172t27 -222.5q0 -114 -33 -213.5t-94.5 -174.5t-157 -118t-213.5 -43q-125 0 -221.5 43t-156 118.5t-89.5 173.5t-30 214zM252 1352q0 57 37 93t92 36q53 0 90 -37t37 -92q0 -52 -37 -89.5 t-90 -37.5q-54 0 -91.5 37t-37.5 90zM332 524q0 -164 67 -258t176 -94q120 0 183 91.5t63 260.5q0 355 -246 355q-243 0 -243 -355zM643 1352q0 56 37 92.5t90 36.5q55 0 92 -36.5t37 -92.5q0 -53 -37.5 -90t-91.5 -37q-52 0 -89.5 37.5t-37.5 89.5z" />
<glyph unicode="&#xf7;" horiz-adv-x="1114" d="M76 424v203h962v-203h-962zM401 84q0 69 45 112.5t111 43.5q65 0 109.5 -43.5t44.5 -112.5q0 -63 -45.5 -108.5t-108.5 -45.5q-64 0 -110 45.5t-46 108.5zM401 965q0 68 45 111.5t111 43.5q64 0 109 -43.5t45 -111.5q0 -64 -45.5 -110t-108.5 -46q-65 0 -110.5 45.5 t-45.5 110.5z" />
<glyph unicode="&#xf8;" horiz-adv-x="1150" d="M78 524q0 247 131.5 398t365.5 151q146 0 246 -47l94 143l113 -71l-96 -148q141 -138 141 -426q0 -114 -33 -213.5t-94.5 -174.5t-157 -118t-213.5 -43q-128 0 -239 52l-96 -148l-113 74l98 151q-147 147 -147 420zM324 524q0 -127 38 -211l347 533q-55 37 -134 37 q-251 0 -251 -359zM449 205q53 -39 126 -39q122 0 187 93t65 265q0 132 -34 213z" />
<glyph unicode="&#xf9;" d="M131 334v715h248v-656q0 -112 46 -161.5t132 -49.5q129 0 221 129v738h250v-611q0 -117 2.5 -226t5.5 -160l2 -50q-72 -14 -110 -14q-127 0 -133 139q-108 -152 -318 -152q-73 0 -133 19.5t-109 60.5t-76.5 112t-27.5 167zM297 1362l117 188l344 -237l-88 -139z" />
<glyph unicode="&#xfa;" d="M131 334v715h248v-656q0 -112 46 -161.5t132 -49.5q129 0 221 129v738h250v-611q0 -117 2.5 -226t5.5 -160l2 -50q-72 -14 -110 -14q-127 0 -133 139q-108 -152 -318 -152q-73 0 -133 19.5t-109 60.5t-76.5 112t-27.5 167zM426 1313l344 237l117 -188l-373 -188z" />
<glyph unicode="&#xfb;" d="M131 334v715h248v-656q0 -112 46 -161.5t132 -49.5q129 0 221 129v738h250v-611q0 -117 2.5 -226t5.5 -160l2 -50q-72 -14 -110 -14q-127 0 -133 139q-108 -152 -318 -152q-73 0 -133 19.5t-109 60.5t-76.5 112t-27.5 167zM242 1350l338 182l340 -178l-84 -152l-263 123 l-247 -123z" />
<glyph unicode="&#xfc;" d="M131 334v715h248v-656q0 -112 46 -161.5t132 -49.5q129 0 221 129v738h250v-611q0 -117 2.5 -226t5.5 -160l2 -50q-72 -14 -110 -14q-127 0 -133 139q-108 -152 -318 -152q-73 0 -133 19.5t-109 60.5t-76.5 112t-27.5 167zM256 1352q0 57 37 93t92 36q53 0 90 -37t37 -92 q0 -52 -37 -89.5t-90 -37.5q-54 0 -91.5 37t-37.5 90zM647 1352q0 56 37 92.5t90 36.5q55 0 92 -36.5t37 -92.5q0 -53 -37.5 -90t-91.5 -37q-52 0 -89.5 37.5t-37.5 89.5z" />
<glyph unicode="&#xfd;" horiz-adv-x="1062" d="M14 1049h269l190 -557q35 -104 64 -256q34 157 67 256l182 557h265l-381 -1049q-92 -254 -207.5 -363.5t-290.5 -109.5q-44 0 -84 8l-27 197q33 -8 78 -8q82 0 142 35.5t108 138.5l31 65q-28 57 -64 156zM395 1313l344 237l117 -188l-373 -188z" />
<glyph unicode="&#xfe;" horiz-adv-x="1169" d="M141 -455v1946l248 12v-366q0 -117 -12 -219q112 155 315 155q85 0 155.5 -29t126 -88.5t87 -159t31.5 -231.5q0 -188 -73.5 -323t-200 -201t-294.5 -66q-70 0 -143 13q8 -98 8 -197v-233zM389 205q78 -33 162 -33q126 0 206.5 91.5t80.5 266.5q0 169 -59.5 252.5 t-166.5 83.5q-133 0 -223 -131v-530z" />
<glyph unicode="&#xff;" horiz-adv-x="1062" d="M14 1049h269l190 -557q35 -104 64 -256q34 157 67 256l182 557h265l-381 -1049q-92 -254 -207.5 -363.5t-290.5 -109.5q-44 0 -84 8l-27 197q33 -8 78 -8q82 0 142 35.5t108 138.5l31 65q-28 57 -64 156zM211 1352q0 57 37 93t92 36q53 0 90 -37t37 -92 q0 -52 -37.5 -89.5t-89.5 -37.5q-54 0 -91.5 37t-37.5 90zM602 1352q0 56 37 92.5t90 36.5q55 0 92 -36.5t37 -92.5q0 -53 -37.5 -90t-91.5 -37q-53 0 -90 37.5t-37 89.5z" />
<glyph unicode="&#x152;" horiz-adv-x="1849" d="M88 717q0 339 175.5 539t475.5 200q117 0 230 -22h774v-207h-594v-391h526v-195h-526v-434h602v-207h-799q-115 -23 -213 -23q-158 0 -282.5 55.5t-204.5 155t-122 234t-42 295.5zM352 717q0 -129 31.5 -231t86 -165t123 -95.5t146.5 -32.5q89 0 162 22v1004 q-73 22 -162 22q-85 0 -154 -29.5t-122 -91t-82 -164t-29 -239.5z" />
<glyph unicode="&#x153;" horiz-adv-x="1814" d="M78 524q0 247 131.5 398t365.5 151q270 0 379 -194q123 194 367 194q194 0 306 -114t112 -338q0 -65 -6 -123h-664q13 -332 352 -332q137 0 254 47l35 -176q-148 -62 -346 -62q-157 0 -262.5 45t-163.5 148q-59 -92 -151 -142.5t-212 -50.5q-125 0 -221.5 43t-156 118.5 t-89.5 173.5t-30 214zM332 524q0 -164 67 -258t176 -94q120 0 183 91.5t63 260.5q0 355 -246 355q-243 0 -243 -355zM1079 657h426q0 107 -55 170.5t-141 63.5q-93 0 -153 -57t-77 -177z" />
<glyph unicode="&#x178;" horiz-adv-x="1177" d="M-10 1434h299l231 -482q45 -94 72 -182q19 61 78 182l241 482h287l-483 -885v-549h-256v549zM276 1704q0 57 37.5 93t92.5 36q53 0 89.5 -37t36.5 -92q0 -53 -37 -90t-89 -37q-54 0 -92 37t-38 90zM668 1704q0 56 37 92.5t90 36.5q55 0 92 -36.5t37 -92.5 q0 -53 -37.5 -90t-91.5 -37q-53 0 -90 37.5t-37 89.5z" />
<glyph unicode="&#x2c6;" horiz-adv-x="1024" d="M174 1350l338 182l340 -178l-84 -152l-262 123l-248 -123z" />
<glyph unicode="&#x2dc;" horiz-adv-x="1024" d="M170 1378q29 45 77 75t109 30q64 0 154 -28t145 -28q90 0 154 64l45 -143q-29 -46 -77.5 -76.5t-108.5 -30.5q-64 0 -154 28.5t-145 28.5q-92 0 -152 -63z" />
<glyph unicode="&#x2000;" horiz-adv-x="974" />
<glyph unicode="&#x2001;" horiz-adv-x="1948" />
<glyph unicode="&#x2002;" horiz-adv-x="974" />
<glyph unicode="&#x2003;" horiz-adv-x="1948" />
<glyph unicode="&#x2004;" horiz-adv-x="649" />
<glyph unicode="&#x2005;" horiz-adv-x="487" />
<glyph unicode="&#x2006;" horiz-adv-x="324" />
<glyph unicode="&#x2007;" horiz-adv-x="324" />
<glyph unicode="&#x2008;" horiz-adv-x="243" />
<glyph unicode="&#x2009;" horiz-adv-x="389" />
<glyph unicode="&#x200a;" horiz-adv-x="108" />
<glyph unicode="&#x2010;" horiz-adv-x="806" d="M123 457v209h561v-209h-561z" />
<glyph unicode="&#x2011;" horiz-adv-x="806" d="M123 457v209h561v-209h-561z" />
<glyph unicode="&#x2012;" horiz-adv-x="806" d="M123 457v209h561v-209h-561z" />
<glyph unicode="&#x2013;" horiz-adv-x="1269" d="M123 457v207h1024v-207h-1024z" />
<glyph unicode="&#x2014;" horiz-adv-x="2293" d="M123 457v207h2048v-207h-2048z" />
<glyph unicode="&#x2018;" horiz-adv-x="475" d="M88 1163q0 176 89 293.5t233 145.5l34 -136q-68 -11 -106.5 -63.5t-38.5 -134.5q35 -10 66.5 -46.5t31.5 -95.5q0 -68 -44.5 -110.5t-110.5 -42.5q-70 0 -112 45.5t-42 144.5z" />
<glyph unicode="&#x2019;" horiz-adv-x="497" d="M80 1079q66 11 104.5 64t38.5 135q-34 10 -65 46t-31 95q0 68 45 111t109 43q70 0 112.5 -46t42.5 -145q0 -177 -88.5 -293.5t-234.5 -144.5z" />
<glyph unicode="&#x201a;" horiz-adv-x="518" d="M57 -213q66 11 105 64t39 135q-34 10 -65.5 46t-31.5 95q0 68 45 111t109 43q70 0 113 -46.5t43 -144.5q0 -176 -89 -293t-235 -145z" />
<glyph unicode="&#x201c;" horiz-adv-x="931" d="M88 1163q0 176 89 293.5t233 145.5l34 -136q-68 -11 -106.5 -63.5t-38.5 -134.5q35 -10 66.5 -46.5t31.5 -95.5q0 -68 -44.5 -110.5t-110.5 -42.5q-70 0 -112 45.5t-42 144.5zM545 1163q0 176 88.5 293.5t232.5 145.5l35 -136q-68 -11 -106.5 -63.5t-38.5 -134.5 q35 -10 66.5 -46.5t31.5 -95.5q0 -68 -45 -110.5t-111 -42.5q-70 0 -111.5 45.5t-41.5 144.5z" />
<glyph unicode="&#x201d;" horiz-adv-x="954" d="M80 1079q66 11 104.5 64t38.5 135q-34 10 -65 46t-31 95q0 68 45 111t109 43q70 0 112.5 -46t42.5 -145q0 -177 -88.5 -293.5t-234.5 -144.5zM539 1079q66 11 104.5 64t38.5 135q-34 10 -65 46t-31 95q0 68 44.5 111t108.5 43q70 0 113 -46.5t43 -144.5q0 -176 -89 -293 t-235 -145z" />
<glyph unicode="&#x201e;" horiz-adv-x="974" d="M57 -213q66 11 105 64t39 135q-34 10 -65.5 46t-31.5 95q0 68 45 111t109 43q70 0 113 -46.5t43 -144.5q0 -176 -89 -293t-235 -145zM514 -213q66 11 104.5 64t38.5 135q-34 10 -65 46t-31 95q0 68 45 111t109 43q70 0 112.5 -46t42.5 -145q0 -177 -88.5 -293.5 t-234.5 -144.5z" />
<glyph unicode="&#x2022;" horiz-adv-x="759" d="M90 662q0 127 83.5 208.5t205.5 81.5q123 0 207 -81.5t84 -208.5q0 -120 -84.5 -203.5t-206.5 -83.5q-120 0 -204.5 83.5t-84.5 203.5z" />
<glyph unicode="&#x2026;" horiz-adv-x="1540" d="M104 127q0 68 45 111t109 43q66 0 111 -43t45 -111q0 -65 -46 -110.5t-110 -45.5q-63 0 -108.5 46t-45.5 110zM616 127q0 68 45 111t109 43q66 0 111 -43t45 -111q0 -65 -46 -110.5t-110 -45.5q-63 0 -108.5 46t-45.5 110zM1128 127q0 68 45 111t109 43q66 0 111 -43 t45 -111q0 -65 -46 -110.5t-110 -45.5q-63 0 -108.5 46t-45.5 110z" />
<glyph unicode="&#x202f;" horiz-adv-x="389" />
<glyph unicode="&#x2039;" horiz-adv-x="606" d="M80 526l227 443l207 -68l-184 -373l184 -374l-213 -68z" />
<glyph unicode="&#x203a;" horiz-adv-x="604" d="M90 154l186 370l-186 377l213 68l221 -443l-227 -440z" />
<glyph unicode="&#x205f;" horiz-adv-x="487" />
<glyph unicode="&#x20ac;" horiz-adv-x="1226" d="M61 500v159h144q-2 20 -2 58q0 39 2 59h-144v160h164q53 248 223.5 389t428.5 141q124 0 276 -41l-29 -219q-42 21 -106.5 35t-120.5 14q-176 0 -277.5 -79t-138.5 -240h516v-160h-536q-2 -20 -2 -59q0 -38 2 -58h536v-159h-514q80 -326 416 -326q57 0 122.5 14t104.5 33 l27 -203q-128 -51 -287 -51q-289 0 -448.5 132t-200.5 401h-156z" />
<glyph unicode="&#x2122;" horiz-adv-x="1730" d="M41 1298v136h623v-136h-220v-585h-184v585h-219zM713 713l78 721h202l133 -381q16 -46 39 -138q14 57 43 138l144 381h200l70 -721h-178l-17 278q-8 152 -8 219q-24 -93 -47 -149l-135 -348h-156l-127 348q-28 75 -47 164q-2 -62 -14 -234l-21 -278h-159z" />
<glyph unicode="&#x25fc;" horiz-adv-x="1044" d="M0 0v1044h1044v-1044h-1044z" />
</font>
</defs>
</svg>
